<svg xmlns="http://www.w3.org/2000/svg" xmlns:xlink="http://www.w3.org/1999/xlink" version="1.2" width="210.00mm" height="297.00mm" viewBox="0 0 119.5016 169.0094">
<!-- Page: 1/1 -->
<text transform="translate(5.6906, 2.8453)" font-family="Century Schoolbook L" font-size="2.2001" text-anchor="start" fill="currentColor">
<tspan>
 </tspan>
</text>
<rect transform="translate(54.6525, 16.6213)" x="0.0000" y="-2.0000" width="0.1900" height="4.0000" ry="0.0000" fill="currentColor"/>
<rect transform="translate(5.6906, 10.6213)" x="16.9068" y="-0.1000" width="1.9743" height="0.2000" ry="0.1000" fill="currentColor"/>
<rect transform="translate(5.6906, 10.6213)" x="36.0687" y="-0.1000" width="1.9743" height="0.2000" ry="0.1000" fill="currentColor"/>
<line transform="translate(14.2264, 9.6213)" stroke-linejoin="round" stroke-linecap="round" stroke-width="0.1000" stroke="currentColor" x1="0.0500" y1="-0.0000" x2="35.2190" y2="-0.0000"/>
<line transform="translate(14.2264, 8.6213)" stroke-linejoin="round" stroke-linecap="round" stroke-width="0.1000" stroke="currentColor" x1="0.0500" y1="-0.0000" x2="35.2190" y2="-0.0000"/>
<line transform="translate(14.2264, 7.6213)" stroke-linejoin="round" stroke-linecap="round" stroke-width="0.1000" stroke="currentColor" x1="0.0500" y1="-0.0000" x2="35.2190" y2="-0.0000"/>
<line transform="translate(14.2264, 6.6213)" stroke-linejoin="round" stroke-linecap="round" stroke-width="0.1000" stroke="currentColor" x1="0.0500" y1="-0.0000" x2="35.2190" y2="-0.0000"/>
<line transform="translate(14.2264, 5.6213)" stroke-linejoin="round" stroke-linecap="round" stroke-width="0.1000" stroke="currentColor" x1="0.0500" y1="-0.0000" x2="35.2190" y2="-0.0000"/>
<rect transform="translate(35.2198, 7.6213)" x="0.0000" y="-2.0000" width="0.1900" height="4.0000" ry="0.0000" fill="currentColor"/>
<rect transform="translate(68.3326, 16.6213)" x="0.0000" y="-2.0000" width="0.1900" height="4.0000" ry="0.0000" fill="currentColor"/>
<rect transform="translate(5.6906, 19.6213)" x="45.4758" y="-0.1000" width="1.9743" height="0.2000" ry="0.1000" fill="currentColor"/>
<rect transform="translate(5.6906, 20.6213)" x="45.4758" y="-0.1000" width="1.9743" height="0.2000" ry="0.1000" fill="currentColor"/>
<rect transform="translate(5.6906, 21.6213)" x="45.4758" y="-0.1000" width="1.9743" height="0.2000" ry="0.1000" fill="currentColor"/>
<rect transform="translate(5.6906, 22.6213)" x="45.4758" y="-0.1000" width="1.9743" height="0.2000" ry="0.1000" fill="currentColor"/>
<rect transform="translate(5.6906, 19.6213)" x="45.4758" y="-0.1000" width="1.9743" height="0.2000" ry="0.1000" fill="currentColor"/>
<rect transform="translate(5.6906, 20.6213)" x="45.4758" y="-0.1000" width="1.9743" height="0.2000" ry="0.1000" fill="currentColor"/>
<rect transform="translate(5.6906, 21.6213)" x="45.4758" y="-0.1000" width="1.9743" height="0.2000" ry="0.1000" fill="currentColor"/>
<rect transform="translate(5.6906, 22.6213)" x="45.4758" y="-0.1000" width="1.9743" height="0.2000" ry="0.1000" fill="currentColor"/>
<rect transform="translate(5.6906, 23.6213)" x="45.4758" y="-0.1000" width="1.9743" height="0.2000" ry="0.1000" fill="currentColor"/>
<rect transform="translate(5.6906, 19.6213)" x="45.4758" y="-0.1000" width="1.9743" height="0.2000" ry="0.1000" fill="currentColor"/>
<rect transform="translate(5.6906, 20.6213)" x="45.4758" y="-0.1000" width="1.9743" height="0.2000" ry="0.1000" fill="currentColor"/>
<rect transform="translate(5.6906, 21.6213)" x="45.4758" y="-0.1000" width="1.9743" height="0.2000" ry="0.1000" fill="currentColor"/>
<rect transform="translate(5.6906, 19.6213)" x="49.7229" y="-0.1000" width="1.9743" height="0.2000" ry="0.1000" fill="currentColor"/>
<rect transform="translate(5.6906, 20.6213)" x="49.7229" y="-0.1000" width="1.9743" height="0.2000" ry="0.1000" fill="currentColor"/>
<rect transform="translate(5.6906, 21.6213)" x="49.7229" y="-0.1000" width="1.9743" height="0.2000" ry="0.1000" fill="currentColor"/>
<rect transform="translate(5.6906, 22.6213)" x="49.7229" y="-0.1000" width="1.9743" height="0.2000" ry="0.1000" fill="currentColor"/>
<rect transform="translate(5.6906, 23.6213)" x="49.7229" y="-0.1000" width="1.9743" height="0.2000" ry="0.1000" fill="currentColor"/>
<rect transform="translate(5.6906, 24.6213)" x="49.7229" y="-0.1000" width="1.9743" height="0.2000" ry="0.1000" fill="currentColor"/>
<rect transform="translate(5.6906, 25.6213)" x="49.7229" y="-0.1000" width="1.9743" height="0.2000" ry="0.1000" fill="currentColor"/>
<rect transform="translate(5.6906, 26.6213)" x="49.7229" y="-0.1000" width="1.9743" height="0.2000" ry="0.1000" fill="currentColor"/>
<rect transform="translate(5.6906, 19.6213)" x="49.7229" y="-0.1000" width="1.9743" height="0.2000" ry="0.1000" fill="currentColor"/>
<rect transform="translate(5.6906, 20.6213)" x="49.7229" y="-0.1000" width="1.9743" height="0.2000" ry="0.1000" fill="currentColor"/>
<rect transform="translate(5.6906, 21.6213)" x="49.7229" y="-0.1000" width="1.9743" height="0.2000" ry="0.1000" fill="currentColor"/>
<rect transform="translate(5.6906, 19.6213)" x="50.9741" y="-0.1000" width="1.9243" height="0.2000" ry="0.1000" fill="currentColor"/>
<rect transform="translate(5.6906, 20.6213)" x="50.9741" y="-0.1000" width="1.9243" height="0.2000" ry="0.1000" fill="currentColor"/>
<rect transform="translate(5.6906, 19.6213)" x="52.9983" y="-0.1000" width="1.9243" height="0.2000" ry="0.1000" fill="currentColor"/>
<rect transform="translate(5.6906, 20.6213)" x="52.9983" y="-0.1000" width="1.9243" height="0.2000" ry="0.1000" fill="currentColor"/>
<rect transform="translate(5.6906, 19.6213)" x="52.9983" y="-0.1000" width="1.9243" height="0.2000" ry="0.1000" fill="currentColor"/>
<rect transform="translate(5.6906, 20.6213)" x="52.9983" y="-0.1000" width="1.9243" height="0.2000" ry="0.1000" fill="currentColor"/>
<rect transform="translate(5.6906, 21.6213)" x="52.9983" y="-0.1000" width="1.9243" height="0.2000" ry="0.1000" fill="currentColor"/>
<rect transform="translate(5.6906, 22.6213)" x="52.9983" y="-0.1000" width="1.9243" height="0.2000" ry="0.1000" fill="currentColor"/>
<rect transform="translate(5.6906, 23.6213)" x="52.9983" y="-0.1000" width="1.9243" height="0.2000" ry="0.1000" fill="currentColor"/>
<rect transform="translate(5.6906, 19.6213)" x="52.9983" y="-0.1000" width="1.9243" height="0.2000" ry="0.1000" fill="currentColor"/>
<rect transform="translate(5.6906, 19.6213)" x="55.9626" y="-0.1000" width="1.9743" height="0.2000" ry="0.1000" fill="currentColor"/>
<rect transform="translate(5.6906, 20.6213)" x="55.9626" y="-0.1000" width="1.9743" height="0.2000" ry="0.1000" fill="currentColor"/>
<rect transform="translate(5.6906, 19.6213)" x="55.9626" y="-0.1000" width="1.9743" height="0.2000" ry="0.1000" fill="currentColor"/>
<rect transform="translate(5.6906, 20.6213)" x="55.9626" y="-0.1000" width="1.9743" height="0.2000" ry="0.1000" fill="currentColor"/>
<rect transform="translate(5.6906, 21.6213)" x="55.9626" y="-0.1000" width="1.9743" height="0.2000" ry="0.1000" fill="currentColor"/>
<rect transform="translate(5.6906, 22.6213)" x="55.9626" y="-0.1000" width="1.9743" height="0.2000" ry="0.1000" fill="currentColor"/>
<rect transform="translate(5.6906, 19.6213)" x="59.0487" y="-0.1000" width="1.9743" height="0.2000" ry="0.1000" fill="currentColor"/>
<rect transform="translate(5.6906, 20.6213)" x="59.0487" y="-0.1000" width="1.9743" height="0.2000" ry="0.1000" fill="currentColor"/>
<rect transform="translate(5.6906, 21.6213)" x="59.0487" y="-0.1000" width="1.9743" height="0.2000" ry="0.1000" fill="currentColor"/>
<rect transform="translate(5.6906, 22.6213)" x="59.0487" y="-0.1000" width="1.9743" height="0.2000" ry="0.1000" fill="currentColor"/>
<rect transform="translate(5.6906, 19.6213)" x="59.2028" y="-0.1000" width="1.8202" height="0.2000" ry="0.1000" fill="currentColor"/>
<rect transform="translate(5.6906, 19.6213)" x="63.4030" y="-0.1000" width="1.9743" height="0.2000" ry="0.1000" fill="currentColor"/>
<rect transform="translate(5.6906, 20.6213)" x="63.4030" y="-0.1000" width="1.9743" height="0.2000" ry="0.1000" fill="currentColor"/>
<rect transform="translate(5.6906, 21.6213)" x="63.4030" y="-0.1000" width="1.9743" height="0.2000" ry="0.1000" fill="currentColor"/>
<rect transform="translate(5.6906, 19.6213)" x="63.4030" y="-0.1000" width="1.9743" height="0.2000" ry="0.1000" fill="currentColor"/>
<rect transform="translate(5.6906, 19.6213)" x="66.4172" y="-0.1000" width="1.9743" height="0.2000" ry="0.1000" fill="currentColor"/>
<rect transform="translate(5.6906, 20.6213)" x="66.4172" y="-0.1000" width="1.9743" height="0.2000" ry="0.1000" fill="currentColor"/>
<rect transform="translate(5.6906, 19.6213)" x="66.4172" y="-0.1000" width="1.9743" height="0.2000" ry="0.1000" fill="currentColor"/>
<rect transform="translate(5.6906, 20.6213)" x="66.4172" y="-0.1000" width="1.9743" height="0.2000" ry="0.1000" fill="currentColor"/>
<rect transform="translate(5.6906, 21.6213)" x="66.4172" y="-0.1000" width="1.9743" height="0.2000" ry="0.1000" fill="currentColor"/>
<rect transform="translate(5.6906, 19.6213)" x="66.4172" y="-0.1000" width="1.9743" height="0.2000" ry="0.1000" fill="currentColor"/>
<rect transform="translate(5.6906, 20.6213)" x="66.4172" y="-0.1000" width="1.9743" height="0.2000" ry="0.1000" fill="currentColor"/>
<rect transform="translate(5.6906, 21.6213)" x="66.4172" y="-0.1000" width="1.9743" height="0.2000" ry="0.1000" fill="currentColor"/>
<rect transform="translate(5.6906, 22.6213)" x="66.4172" y="-0.1000" width="1.9743" height="0.2000" ry="0.1000" fill="currentColor"/>
<rect transform="translate(5.6906, 23.6213)" x="66.4172" y="-0.1000" width="1.9743" height="0.2000" ry="0.1000" fill="currentColor"/>
<rect transform="translate(5.6906, 24.6213)" x="66.4172" y="-0.1000" width="1.9743" height="0.2000" ry="0.1000" fill="currentColor"/>
<line transform="translate(43.5954, 18.6213)" stroke-linejoin="round" stroke-linecap="round" stroke-width="0.1000" stroke="currentColor" x1="0.0500" y1="-0.0000" x2="31.8056" y2="-0.0000"/>
<line transform="translate(43.5954, 17.6213)" stroke-linejoin="round" stroke-linecap="round" stroke-width="0.1000" stroke="currentColor" x1="0.0500" y1="-0.0000" x2="31.8056" y2="-0.0000"/>
<line transform="translate(43.5954, 16.6213)" stroke-linejoin="round" stroke-linecap="round" stroke-width="0.1000" stroke="currentColor" x1="0.0500" y1="-0.0000" x2="31.8056" y2="-0.0000"/>
<line transform="translate(43.5954, 15.6213)" stroke-linejoin="round" stroke-linecap="round" stroke-width="0.1000" stroke="currentColor" x1="0.0500" y1="-0.0000" x2="31.8056" y2="-0.0000"/>
<line transform="translate(43.5954, 14.6213)" stroke-linejoin="round" stroke-linecap="round" stroke-width="0.1000" stroke="currentColor" x1="0.0500" y1="-0.0000" x2="31.8056" y2="-0.0000"/>
<a style="color:inherit;" xlink:href="textedit:///home/user/Documents/hackbright-project/static/scores/song:23:24:25">
<path transform="translate(58.9679, 20.6213) scale(0.0040, -0.0040)" d="M220 138c56 0 109 -29 109 -91c0 -72 -56 -121 -103 -149c-36 -21 -76 -36 -117 -36c-56 0 -109 29 -109 91c0 72 56 121 103 149c36 21 76 36 117 36z" fill="currentColor"/>
</a>
<a style="color:inherit;" xlink:href="textedit:///home/user/Documents/hackbright-project/static/scores/song:23:27:28">
<path transform="translate(58.9679, 24.1213) scale(0.0040, -0.0040)" d="M220 138c56 0 109 -29 109 -91c0 -72 -56 -121 -103 -149c-36 -21 -76 -36 -117 -36c-56 0 -109 29 -109 91c0 72 56 121 103 149c36 21 76 36 117 36z" fill="currentColor"/>
</a>
<a style="color:inherit;" xlink:href="textedit:///home/user/Documents/hackbright-project/static/scores/song:23:31:32">
<path transform="translate(58.9679, 19.6213) scale(0.0040, -0.0040)" d="M220 138c56 0 109 -29 109 -91c0 -72 -56 -121 -103 -149c-36 -21 -76 -36 -117 -36c-56 0 -109 29 -109 91c0 72 56 121 103 149c36 21 76 36 117 36z" fill="currentColor"/>
</a>
<rect transform="translate(60.2191, 16.6213)" x="-0.0650" y="-0.5000" width="0.1300" height="7.8122" ry="0.0400" fill="currentColor"/>
<a style="color:inherit;" xlink:href="textedit:///home/user/Documents/hackbright-project/static/scores/song:24:24:25">
<path transform="translate(61.9821, 19.1213) scale(0.0040, -0.0040)" d="M220 138c56 0 109 -29 109 -91c0 -72 -56 -121 -103 -149c-36 -21 -76 -36 -117 -36c-56 0 -109 29 -109 91c0 72 56 121 103 149c36 21 76 36 117 36z" fill="currentColor"/>
</a>
<path transform="translate(47.7954, 16.6213) scale(0.0040, -0.0040)" d="M359 27c-49 0 -75 42 -75 75c0 38 27 77 72 77c4 0 9 0 14 -1c-28 37 -72 59 -120 59c-106 0 -113 -73 -113 -186v-51v-51c0 -113 7 -187 113 -187c80 0 139 70 158 151c2 7 7 10 12 10c6 0 13 -4 13 -12c0 -94 -105 -174 -183 -174c-68 0 -137 21 -184 70
c-49 51 -66 122 -66 193s17 142 66 193c47 49 116 69 184 69c87 0 160 -64 175 -150c1 -5 1 -9 1 -13c0 -40 -30 -72 -67 -72z" fill="currentColor"/>
<rect transform="translate(52.7466, 16.6213)" x="-0.0650" y="-0.0000" width="0.1300" height="7.3122" ry="0.0400" fill="currentColor"/>
<a style="color:inherit;" xlink:href="textedit:///home/user/Documents/hackbright-project/static/scores/song:22:24:25">
<path transform="translate(55.7425, 26.6213) scale(0.0040, -0.0040)" d="M220 138c56 0 109 -29 109 -91c0 -72 -56 -121 -103 -149c-36 -21 -76 -36 -117 -36c-56 0 -109 29 -109 91c0 72 56 121 103 149c36 21 76 36 117 36z" fill="currentColor"/>
</a>
<a style="color:inherit;" xlink:href="textedit:///home/user/Documents/hackbright-project/static/scores/song:22:28:29">
<path transform="translate(55.7425, 21.6213) scale(0.0040, -0.0040)" d="M220 138c56 0 109 -29 109 -91c0 -72 -56 -121 -103 -149c-36 -21 -76 -36 -117 -36c-56 0 -109 29 -109 91c0 72 56 121 103 149c36 21 76 36 117 36z" fill="currentColor"/>
</a>
<a style="color:inherit;" xlink:href="textedit:///home/user/Documents/hackbright-project/static/scores/song:22:31:32">
<path transform="translate(56.9937, 21.1213) scale(0.0040, -0.0040)" d="M220 138c56 0 109 -29 109 -91c0 -72 -56 -121 -103 -149c-36 -21 -76 -36 -117 -36c-56 0 -109 29 -109 91c0 72 56 121 103 149c36 21 76 36 117 36z" fill="currentColor"/>
</a>
<rect transform="translate(56.9937, 16.6213)" x="-0.0650" y="-0.0000" width="0.1300" height="9.8122" ry="0.0400" fill="currentColor"/>
<rect transform="translate(70.6737, 16.6213)" x="-0.0650" y="-1.5000" width="0.1300" height="6.8122" ry="0.0400" fill="currentColor"/>
<a style="color:inherit;" xlink:href="textedit:///home/user/Documents/hackbright-project/static/scores/song:27:24:25">
<path transform="translate(72.4368, 20.6213) scale(0.0040, -0.0040)" d="M220 138c56 0 109 -29 109 -91c0 -72 -56 -121 -103 -149c-36 -21 -76 -36 -117 -36c-56 0 -109 29 -109 91c0 72 56 121 103 149c36 21 76 36 117 36z" fill="currentColor"/>
</a>
<a style="color:inherit;" xlink:href="textedit:///home/user/Documents/hackbright-project/static/scores/song:27:27:28">
<path transform="translate(72.4368, 21.6213) scale(0.0040, -0.0040)" d="M220 138c56 0 109 -29 109 -91c0 -72 -56 -121 -103 -149c-36 -21 -76 -36 -117 -36c-56 0 -109 29 -109 91c0 72 56 121 103 149c36 21 76 36 117 36z" fill="currentColor"/>
</a>
<a style="color:inherit;" xlink:href="textedit:///home/user/Documents/hackbright-project/static/scores/song:27:30:31">
<path transform="translate(72.4368, 25.1213) scale(0.0040, -0.0040)" d="M220 138c56 0 109 -29 109 -91c0 -72 -56 -121 -103 -149c-36 -21 -76 -36 -117 -36c-56 0 -109 29 -109 91c0 72 56 121 103 149c36 21 76 36 117 36z" fill="currentColor"/>
</a>
<rect transform="translate(73.6880, 16.6213)" x="-0.0650" y="-0.0000" width="0.1300" height="8.3122" ry="0.0400" fill="currentColor"/>
<a style="color:inherit;" xlink:href="textedit:///home/user/Documents/hackbright-project/static/scores/song:24:28:29">
<path transform="translate(61.9821, 20.6213) scale(0.0040, -0.0040)" d="M220 138c56 0 109 -29 109 -91c0 -72 -56 -121 -103 -149c-36 -21 -76 -36 -117 -36c-56 0 -109 29 -109 91c0 72 56 121 103 149c36 21 76 36 117 36z" fill="currentColor"/>
</a>
<a style="color:inherit;" xlink:href="textedit:///home/user/Documents/hackbright-project/static/scores/song:24:31:32">
<path transform="translate(61.9821, 22.6213) scale(0.0040, -0.0040)" d="M220 138c56 0 109 -29 109 -91c0 -72 -56 -121 -103 -149c-36 -21 -76 -36 -117 -36c-56 0 -109 29 -109 91c0 72 56 121 103 149c36 21 76 36 117 36z" fill="currentColor"/>
</a>
<rect transform="translate(63.2333, 16.6213)" x="-0.0650" y="-1.0000" width="0.1300" height="6.8122" ry="0.0400" fill="currentColor"/>
<a style="color:inherit;" xlink:href="textedit:///home/user/Documents/hackbright-project/static/scores/song:25:24:25">
<path transform="translate(65.0683, 18.6213) scale(0.0040, -0.0040)" d="M220 138c56 0 109 -29 109 -91c0 -72 -56 -121 -103 -149c-36 -21 -76 -36 -117 -36c-56 0 -109 29 -109 91c0 72 56 121 103 149c36 21 76 36 117 36z" fill="currentColor"/>
</a>
<a style="color:inherit;" xlink:href="textedit:///home/user/Documents/hackbright-project/static/scores/song:25:28:29">
<path transform="translate(65.0683, 22.6213) scale(0.0040, -0.0040)" d="M220 138c56 0 109 -29 109 -91c0 -72 -56 -121 -103 -149c-36 -21 -76 -36 -117 -36c-56 0 -109 29 -109 91c0 72 56 121 103 149c36 21 76 36 117 36z" fill="currentColor"/>
</a>
<a style="color:inherit;" xlink:href="textedit:///home/user/Documents/hackbright-project/static/scores/song:25:31:32">
<path transform="translate(65.0683, 20.1213) scale(0.0040, -0.0040)" d="M220 138c56 0 109 -29 109 -91c0 -72 -56 -121 -103 -149c-36 -21 -76 -36 -117 -36c-56 0 -109 29 -109 91c0 72 56 121 103 149c36 21 76 36 117 36z" fill="currentColor"/>
</a>
<rect transform="translate(66.3195, 16.6213)" x="-0.0650" y="-1.5000" width="0.1300" height="7.3122" ry="0.0400" fill="currentColor"/>
<path transform="translate(63.9183, 20.1213) scale(0.0040, -0.0040)" d="M27 41l-1 -66v-11c0 -22 1 -44 4 -66c45 38 93 80 93 139c0 33 -14 67 -43 67c-31 0 -52 -30 -53 -63zM-15 -138l-12 595c8 5 18 8 27 8s19 -3 27 -8l-7 -345c25 21 58 34 91 34c52 0 89 -48 89 -102c0 -80 -86 -117 -147 -169c-15 -13 -24 -38 -45 -38
c-13 0 -23 11 -23 25z" fill="currentColor"/>
<a style="color:inherit;" xlink:href="textedit:///home/user/Documents/hackbright-project/static/scores/song:26:24:25">
<path transform="translate(69.4226, 18.6213) scale(0.0040, -0.0040)" d="M220 138c56 0 109 -29 109 -91c0 -72 -56 -121 -103 -149c-36 -21 -76 -36 -117 -36c-56 0 -109 29 -109 91c0 72 56 121 103 149c36 21 76 36 117 36z" fill="currentColor"/>
</a>
<a style="color:inherit;" xlink:href="textedit:///home/user/Documents/hackbright-project/static/scores/song:26:28:29">
<path transform="translate(69.4226, 22.1213) scale(0.0040, -0.0040)" d="M220 138c56 0 109 -29 109 -91c0 -72 -56 -121 -103 -149c-36 -21 -76 -36 -117 -36c-56 0 -109 29 -109 91c0 72 56 121 103 149c36 21 76 36 117 36z" fill="currentColor"/>
</a>
<a style="color:inherit;" xlink:href="textedit:///home/user/Documents/hackbright-project/static/scores/song:26:31:32">
<path transform="translate(69.4226, 20.1213) scale(0.0040, -0.0040)" d="M220 138c56 0 109 -29 109 -91c0 -72 -56 -121 -103 -149c-36 -21 -76 -36 -117 -36c-56 0 -109 29 -109 91c0 72 56 121 103 149c36 21 76 36 117 36z" fill="currentColor"/>
</a>
<a style="color:inherit;" xlink:href="textedit:///home/user/Documents/hackbright-project/static/scores/song:12:22:23">
<path transform="translate(25.9406, 10.1213) scale(0.0040, -0.0040)" d="M220 138c56 0 109 -29 109 -91c0 -72 -56 -121 -103 -149c-36 -21 -76 -36 -117 -36c-56 0 -109 29 -109 91c0 72 56 121 103 149c36 21 76 36 117 36z" fill="currentColor"/>
</a>
<rect transform="translate(27.1918, 7.6213)" x="-0.0650" y="-1.0000" width="0.1300" height="3.3122" ry="0.0400" fill="currentColor"/>
<a style="color:inherit;" xlink:href="textedit:///home/user/Documents/hackbright-project/static/scores/song:13:22:23">
<path transform="translate(28.9548, 9.6213) scale(0.0040, -0.0040)" d="M220 138c56 0 109 -29 109 -91c0 -72 -56 -121 -103 -149c-36 -21 -76 -36 -117 -36c-56 0 -109 29 -109 91c0 72 56 121 103 149c36 21 76 36 117 36z" fill="currentColor"/>
</a>
<rect transform="translate(30.2060, 7.6213)" x="-0.0650" y="-1.5000" width="0.1300" height="3.3122" ry="0.0400" fill="currentColor"/>
<a style="color:inherit;" xlink:href="textedit:///home/user/Documents/hackbright-project/static/scores/song:14:22:23">
<path transform="translate(31.9690, 9.1213) scale(0.0040, -0.0040)" d="M220 138c56 0 109 -29 109 -91c0 -72 -56 -121 -103 -149c-36 -21 -76 -36 -117 -36c-56 0 -109 29 -109 91c0 72 56 121 103 149c36 21 76 36 117 36z" fill="currentColor"/>
</a>
<rect transform="translate(33.2202, 7.6213)" x="-0.0650" y="-2.0000" width="0.1300" height="3.3122" ry="0.0400" fill="currentColor"/>
<a style="color:inherit;" xlink:href="textedit:///home/user/Documents/hackbright-project/static/scores/song:11:59:60">
<path transform="translate(22.9264, 10.6213) scale(0.0040, -0.0040)" d="M220 138c56 0 109 -29 109 -91c0 -72 -56 -121 -103 -149c-36 -21 -76 -36 -117 -36c-56 0 -109 29 -109 91c0 72 56 121 103 149c36 21 76 36 117 36z" fill="currentColor"/>
</a>
<path transform="translate(15.0264, 8.6213) scale(0.0040, -0.0040)" d="M376 262c4 0 9 1 13 1c155 0 256 -128 256 -261c0 -76 -33 -154 -107 -210c-22 -17 -47 -28 -73 -36c3 -35 5 -70 5 -105c0 -19 -1 -39 -2 -58c-7 -120 -90 -228 -208 -228c-108 0 -195 88 -195 197c0 58 53 103 112 103c54 0 95 -47 95 -103c0 -52 -43 -95 -95 -95
c-11 0 -21 2 -31 6c26 -39 68 -65 117 -65c96 0 157 92 163 191c1 18 2 37 2 55c0 31 -1 61 -4 92c-29 -5 -58 -8 -89 -8c-188 0 -333 172 -333 374c0 177 131 306 248 441c-19 62 -37 125 -45 190c-6 52 -7 104 -7 156c0 115 55 224 149 292c3 2 7 3 10 3c4 0 7 0 10 -3
c71 -84 133 -245 133 -358c0 -143 -86 -255 -180 -364c21 -68 39 -138 56 -207zM461 -203c68 24 113 95 113 164c0 90 -66 179 -173 190c24 -116 46 -231 60 -354zM74 28c0 -135 129 -247 264 -247c28 0 55 2 82 6c-14 127 -37 245 -63 364c-79 -8 -124 -61 -124 -119
c0 -44 25 -91 81 -123c5 -5 7 -10 7 -15c0 -11 -10 -22 -22 -22c-3 0 -6 1 -9 2c-80 43 -117 115 -117 185c0 88 58 174 160 197c-14 58 -29 117 -46 175c-107 -121 -213 -243 -213 -403zM408 1045c-99 -48 -162 -149 -162 -259c0 -74 18 -133 36 -194
c80 97 146 198 146 324c0 55 -4 79 -20 129z" fill="currentColor"/>
<path transform="translate(19.2264, 7.6213) scale(0.0040, -0.0040)" d="M359 27c-49 0 -75 42 -75 75c0 38 27 77 72 77c4 0 9 0 14 -1c-28 37 -72 59 -120 59c-106 0 -113 -73 -113 -186v-51v-51c0 -113 7 -187 113 -187c80 0 139 70 158 151c2 7 7 10 12 10c6 0 13 -4 13 -12c0 -94 -105 -174 -183 -174c-68 0 -137 21 -184 70
c-49 51 -66 122 -66 193s17 142 66 193c47 49 116 69 184 69c87 0 160 -64 175 -150c1 -5 1 -9 1 -13c0 -40 -30 -72 -67 -72z" fill="currentColor"/>
<rect transform="translate(24.1775, 7.6213)" x="-0.0650" y="-0.5000" width="0.1300" height="3.3122" ry="0.0400" fill="currentColor"/>
<a style="color:inherit;" xlink:href="textedit:///home/user/Documents/hackbright-project/static/scores/song:17:22:23">
<path transform="translate(42.0883, 10.6213) scale(0.0040, -0.0040)" d="M220 138c56 0 109 -29 109 -91c0 -72 -56 -121 -103 -149c-36 -21 -76 -36 -117 -36c-56 0 -109 29 -109 91c0 72 56 121 103 149c36 21 76 36 117 36z" fill="currentColor"/>
</a>
<rect transform="translate(43.3395, 7.6213)" x="-0.0650" y="-0.5000" width="0.1300" height="3.3122" ry="0.0400" fill="currentColor"/>
<rect transform="translate(40.5752, 7.6213)" x="-0.0650" y="-2.5000" width="0.1300" height="3.3122" ry="0.0400" fill="currentColor"/>
<a style="color:inherit;" xlink:href="textedit:///home/user/Documents/hackbright-project/static/scores/song:16:22:23">
<path transform="translate(39.3241, 8.6213) scale(0.0040, -0.0040)" d="M220 138c56 0 109 -29 109 -91c0 -72 -56 -121 -103 -149c-36 -21 -76 -36 -117 -36c-56 0 -109 29 -109 91c0 72 56 121 103 149c36 21 76 36 117 36z" fill="currentColor"/>
</a>
<path transform="translate(43.5954, 17.6213) scale(0.0040, -0.0040)" d="M518 1c0 -82 -56 -168 -141 -197c2 -27 3 -54 3 -81c0 -16 0 -33 -1 -49c-6 -99 -75 -186 -173 -186c-87 0 -159 72 -159 160c0 46 42 83 90 83c43 0 76 -38 76 -83c0 -42 -34 -76 -76 -76c-4 0 -6 0 -10 1c19 -26 47 -42 81 -42c75 0 124 72 129 149c1 15 1 30 1 45
c0 23 -1 46 -3 69c-22 -4 -44 -6 -67 -6c-151 0 -266 139 -266 302c0 144 101 254 191 367c-16 53 -31 105 -37 160c-5 42 -5 85 -5 128c0 93 42 181 115 239c3 2 6 3 9 3c4 0 8 -1 11 -4c57 -69 107 -202 107 -295c0 -115 -63 -207 -135 -297c17 -59 33 -119 47 -179h1
c2 0 4 1 6 1c126 0 206 -105 206 -212zM373 -155c50 20 81 75 81 125c0 68 -48 136 -127 147c19 -89 35 -178 46 -272zM63 19c0 -104 102 -188 208 -188c21 0 40 1 60 4c-11 98 -28 191 -48 283c-59 -7 -93 -48 -93 -92c0 -34 21 -70 64 -95c5 -5 6 -10 6 -15
c0 -11 -9 -22 -21 -22c-3 0 -6 1 -9 2c-65 35 -95 93 -95 150c0 71 46 141 128 161c-11 48 -24 95 -38 143c-82 -101 -162 -202 -162 -331zM319 860c-76 -44 -123 -124 -123 -211c0 -56 15 -104 29 -151c59 79 107 162 107 261c0 43 -2 61 -13 101z" fill="currentColor"/>
<rect transform="translate(37.5610, 7.6213)" x="-0.0650" y="-2.5000" width="0.1300" height="3.3122" ry="0.0400" fill="currentColor"/>
<a style="color:inherit;" xlink:href="textedit:///home/user/Documents/hackbright-project/static/scores/song:21:57:58">
<path transform="translate(51.4954, 22.1213) scale(0.0040, -0.0040)" d="M220 138c56 0 109 -29 109 -91c0 -72 -56 -121 -103 -149c-36 -21 -76 -36 -117 -36c-56 0 -109 29 -109 91c0 72 56 121 103 149c36 21 76 36 117 36z" fill="currentColor"/>
</a>
<a style="color:inherit;" xlink:href="textedit:///home/user/Documents/hackbright-project/static/scores/song:21:50:51">
<path transform="translate(51.4954, 23.1213) scale(0.0040, -0.0040)" d="M220 138c56 0 109 -29 109 -91c0 -72 -56 -121 -103 -149c-36 -21 -76 -36 -117 -36c-56 0 -109 29 -109 91c0 72 56 121 103 149c36 21 76 36 117 36z" fill="currentColor"/>
</a>
<a style="color:inherit;" xlink:href="textedit:///home/user/Documents/hackbright-project/static/scores/song:21:53:54">
<path transform="translate(51.4954, 24.1213) scale(0.0040, -0.0040)" d="M220 138c56 0 109 -29 109 -91c0 -72 -56 -121 -103 -149c-36 -21 -76 -36 -117 -36c-56 0 -109 29 -109 91c0 72 56 121 103 149c36 21 76 36 117 36z" fill="currentColor"/>
</a>
<a style="color:inherit;" xlink:href="textedit:///home/user/Documents/hackbright-project/static/scores/song:15:22:23">
<path transform="translate(36.3098, 8.6213) scale(0.0040, -0.0040)" d="M220 138c56 0 109 -29 109 -91c0 -72 -56 -121 -103 -149c-36 -21 -76 -36 -117 -36c-56 0 -109 29 -109 91c0 72 56 121 103 149c36 21 76 36 117 36z" fill="currentColor"/>
</a>
<a transform="translate(31.4631, 165.1512)" xlink:href="http://lilypond.org/">
<rect x="0.0000" y="-0.4439" width="56.5755" height="2.0827" fill="none" stroke="none" stroke-width="0.0"/>
</a>
<text transform="translate(31.4631, 165.1512)" font-family="Century Schoolbook L" font-size="2.2001" text-anchor="start" fill="currentColor">
<tspan>
Music engraving by LilyPond 2.18.2—www.lilypond.org</tspan>
</text>
</svg>
